# xmcd
#
# Track frame offsets:
#	150
#	27082
#	44479
#	65100
#	79724
#	98006
#	113085
#	129503
#	151264
#	171832
#	192861
#	208088
#
# Disc length: 2998 seconds
#
# Revision: 0
# Processed by: cddbd v1.5.2PL0 Copyright (c) Steve Scherf et al.
# Submitted via: EasyCDDAExtractor 4.6.9.1
#
DISCID=9d0bb40c
DTITLE=Daniel Lavoie - J'écoute la radio
DYEAR=2011
DGENRE=Québécois
TTITLE0=Jour de plaine (avec Jorane)
TTITLE1=Tension, attention
TTITLE2=Qui sait (avec Maurane)
TTITLE3=J'ai quitté mon île (avec Louis-Jean Cormier)
TTITLE4=Où la route nous mène
TTITLE5=Je pensais pas (avec Catherine Major)
TTITLE6=J'écoute la radio
TTITLE7=Ils s'aiment
TTITLE8=Je voudrais voir New York (avec Martin Léon)
TTITLE9=La vérité sur la vérité
TTITLE10=La danse du smatte
TTITLE11=Boule qui roule
EXTD=
EXTT0=
EXTT1=
EXTT2=
EXTT3=
EXTT4=
EXTT5=
EXTT6=
EXTT7=
EXTT8=
EXTT9=
EXTT10=
EXTT11=
PLAYORDER=
